ISO-10303-21;
HEADER;
FILE_DESCRIPTION(('FreeCAD Model'),'2;1');
FILE_NAME('Open CASCADE Shape Model','2026-05-07T17:33:45',(
    'kicad StepUp'),('ksu MCAD'),'Open CASCADE STEP processor 7.8',
  'FreeCAD','Unknown');
FILE_SCHEMA(('AUTOMOTIVE_DESIGN { 1 0 10303 214 1 1 1 1 }'));
ENDSEC;
DATA;
#1 = APPLICATION_PROTOCOL_DEFINITION('international standard',
  'automotive_design',2000,#2);
#2 = APPLICATION_CONTEXT(
  'core data for automotive mechanical design processes');
#3 = SHAPE_DEFINITION_REPRESENTATION(#4,#10);
#4 = PRODUCT_DEFINITION_SHAPE('','',#5);
#5 = PRODUCT_DEFINITION('design','',#6,#9);
#6 = PRODUCT_DEFINITION_FORMATION('','',#7);
#7 = PRODUCT('Fusion','Fusion','',(#8));
#8 = PRODUCT_CONTEXT('',#2,'mechanical');
#9 = PRODUCT_DEFINITION_CONTEXT('part definition',#2,'design');
#10 = ADVANCED_BREP_SHAPE_REPRESENTATION('',(#11,#15),#357);
#11 = AXIS2_PLACEMENT_3D('',#12,#13,#14);
#12 = CARTESIAN_POINT('',(0.,0.,0.));
#13 = DIRECTION('',(0.,0.,1.));
#14 = DIRECTION('',(1.,0.,-0.));
#15 = MANIFOLD_SOLID_BREP('',#16);
#16 = CLOSED_SHELL('',(#17,#52,#78,#94,#126,#151,#169,#228,#244,#255,
    #280,#305,#330,#339,#348));
#17 = ADVANCED_FACE('',(#18),#47,.F.);
#18 = FACE_BOUND('',#19,.F.);
#19 = EDGE_LOOP('',(#20,#31,#40));
#20 = ORIENTED_EDGE('',*,*,#21,.T.);
#21 = EDGE_CURVE('',#22,#24,#26,.T.);
#22 = VERTEX_POINT('',#23);
#23 = CARTESIAN_POINT('',(2.950089283342,1.229704525612,0.));
#24 = VERTEX_POINT('',#25);
#25 = CARTESIAN_POINT('',(3.484419018716,0.329884983006,0.));
#26 = CIRCLE('',#27,0.6);
#27 = AXIS2_PLACEMENT_3D('',#28,#29,#30);
#28 = CARTESIAN_POINT('',(3.469704525612,0.929704525612,0.));
#29 = DIRECTION('',(0.,0.,1.));
#30 = DIRECTION('',(-0.866025403784,0.5,0.));
#31 = ORIENTED_EDGE('',*,*,#32,.T.);
#32 = EDGE_CURVE('',#24,#33,#35,.T.);
#33 = VERTEX_POINT('',#34);
#34 = CARTESIAN_POINT('',(3.18253787914,1.456520733748,0.));
#35 = CIRCLE('',#36,3.5);
#36 = AXIS2_PLACEMENT_3D('',#37,#38,#39);
#37 = CARTESIAN_POINT('',(0.,0.,0.));
#38 = DIRECTION('',(0.,0.,1.));
#39 = DIRECTION('',(-0.866025403784,0.5,0.));
#40 = ORIENTED_EDGE('',*,*,#41,.T.);
#41 = EDGE_CURVE('',#33,#22,#42,.T.);
#42 = CIRCLE('',#43,0.6);
#43 = AXIS2_PLACEMENT_3D('',#44,#45,#46);
#44 = CARTESIAN_POINT('',(3.469704525612,0.929704525612,0.));
#45 = DIRECTION('',(0.,0.,1.));
#46 = DIRECTION('',(-0.866025403784,0.5,0.));
#47 = PLANE('',#48);
#48 = AXIS2_PLACEMENT_3D('',#49,#50,#51);
#49 = CARTESIAN_POINT('',(0.,0.,0.));
#50 = DIRECTION('',(0.,0.,1.));
#51 = DIRECTION('',(-0.866025403784,0.5,0.));
#52 = ADVANCED_FACE('',(#53),#73,.F.);
#53 = FACE_BOUND('',#54,.F.);
#54 = EDGE_LOOP('',(#55,#64,#71,#72));
#55 = ORIENTED_EDGE('',*,*,#56,.T.);
#56 = EDGE_CURVE('',#33,#57,#59,.T.);
#57 = VERTEX_POINT('',#58);
#58 = CARTESIAN_POINT('',(-3.031088913246,1.75,0.));
#59 = CIRCLE('',#60,3.5);
#60 = AXIS2_PLACEMENT_3D('',#61,#62,#63);
#61 = CARTESIAN_POINT('',(0.,0.,0.));
#62 = DIRECTION('',(0.,0.,1.));
#63 = DIRECTION('',(-0.866025403784,0.5,0.));
#64 = ORIENTED_EDGE('',*,*,#65,.T.);
#65 = EDGE_CURVE('',#57,#24,#66,.T.);
#66 = CIRCLE('',#67,3.5);
#67 = AXIS2_PLACEMENT_3D('',#68,#69,#70);
#68 = CARTESIAN_POINT('',(0.,0.,0.));
#69 = DIRECTION('',(0.,0.,1.));
#70 = DIRECTION('',(-0.866025403784,0.5,0.));
#71 = ORIENTED_EDGE('',*,*,#21,.F.);
#72 = ORIENTED_EDGE('',*,*,#41,.F.);
#73 = PLANE('',#74);
#74 = AXIS2_PLACEMENT_3D('',#75,#76,#77);
#75 = CARTESIAN_POINT('',(0.,0.,0.));
#76 = DIRECTION('',(0.,0.,1.));
#77 = DIRECTION('',(-0.866025403784,0.5,0.));
#78 = ADVANCED_FACE('',(#79),#89,.F.);
#79 = FACE_BOUND('',#80,.F.);
#80 = EDGE_LOOP('',(#81,#82));
#81 = ORIENTED_EDGE('',*,*,#32,.F.);
#82 = ORIENTED_EDGE('',*,*,#83,.T.);
#83 = EDGE_CURVE('',#24,#33,#84,.T.);
#84 = CIRCLE('',#85,0.6);
#85 = AXIS2_PLACEMENT_3D('',#86,#87,#88);
#86 = CARTESIAN_POINT('',(3.469704525612,0.929704525612,0.));
#87 = DIRECTION('',(0.,0.,1.));
#88 = DIRECTION('',(-0.866025403784,0.5,0.));
#89 = PLANE('',#90);
#90 = AXIS2_PLACEMENT_3D('',#91,#92,#93);
#91 = CARTESIAN_POINT('',(3.469704525612,0.929704525612,0.));
#92 = DIRECTION('',(0.,0.,1.));
#93 = DIRECTION('',(-0.866025403784,0.5,0.));
#94 = ADVANCED_FACE('',(#95),#121,.T.);
#95 = FACE_BOUND('',#96,.F.);
#96 = EDGE_LOOP('',(#97,#105,#106,#114));
#97 = ORIENTED_EDGE('',*,*,#98,.F.);
#98 = EDGE_CURVE('',#57,#99,#101,.T.);
#99 = VERTEX_POINT('',#100);
#100 = CARTESIAN_POINT('',(-3.031088913246,1.75,5.3));
#101 = LINE('',#102,#103);
#102 = CARTESIAN_POINT('',(-3.031088913246,1.75,0.));
#103 = VECTOR('',#104,1.);
#104 = DIRECTION('',(0.,0.,1.));
#105 = ORIENTED_EDGE('',*,*,#56,.F.);
#106 = ORIENTED_EDGE('',*,*,#107,.F.);
#107 = EDGE_CURVE('',#108,#33,#110,.T.);
#108 = VERTEX_POINT('',#109);
#109 = CARTESIAN_POINT('',(3.18253787914,1.456520733748,5.3));
#110 = LINE('',#111,#112);
#111 = CARTESIAN_POINT('',(3.18253787914,1.456520733748,0.));
#112 = VECTOR('',#113,1.);
#113 = DIRECTION('',(0.,0.,-1.));
#114 = ORIENTED_EDGE('',*,*,#115,.T.);
#115 = EDGE_CURVE('',#108,#99,#116,.T.);
#116 = CIRCLE('',#117,3.5);
#117 = AXIS2_PLACEMENT_3D('',#118,#119,#120);
#118 = CARTESIAN_POINT('',(0.,0.,5.3));
#119 = DIRECTION('',(0.,0.,1.));
#120 = DIRECTION('',(-0.866025403784,0.5,0.));
#121 = CYLINDRICAL_SURFACE('',#122,3.5);
#122 = AXIS2_PLACEMENT_3D('',#123,#124,#125);
#123 = CARTESIAN_POINT('',(0.,0.,0.));
#124 = DIRECTION('',(0.,0.,-1.));
#125 = DIRECTION('',(-0.866025403784,0.5,0.));
#126 = ADVANCED_FACE('',(#127),#146,.T.);
#127 = FACE_BOUND('',#128,.F.);
#128 = EDGE_LOOP('',(#129,#130,#131,#140));
#129 = ORIENTED_EDGE('',*,*,#65,.F.);
#130 = ORIENTED_EDGE('',*,*,#98,.T.);
#131 = ORIENTED_EDGE('',*,*,#132,.T.);
#132 = EDGE_CURVE('',#99,#133,#135,.T.);
#133 = VERTEX_POINT('',#134);
#134 = CARTESIAN_POINT('',(3.484419018716,0.329884983006,5.3));
#135 = CIRCLE('',#136,3.5);
#136 = AXIS2_PLACEMENT_3D('',#137,#138,#139);
#137 = CARTESIAN_POINT('',(0.,0.,5.3));
#138 = DIRECTION('',(0.,0.,1.));
#139 = DIRECTION('',(-0.866025403784,0.5,0.));
#140 = ORIENTED_EDGE('',*,*,#141,.T.);
#141 = EDGE_CURVE('',#133,#24,#142,.T.);
#142 = LINE('',#143,#144);
#143 = CARTESIAN_POINT('',(3.484419018716,0.329884983006,0.));
#144 = VECTOR('',#145,1.);
#145 = DIRECTION('',(0.,0.,-1.));
#146 = CYLINDRICAL_SURFACE('',#147,3.5);
#147 = AXIS2_PLACEMENT_3D('',#148,#149,#150);
#148 = CARTESIAN_POINT('',(0.,0.,0.));
#149 = DIRECTION('',(0.,0.,-1.));
#150 = DIRECTION('',(-0.866025403784,0.5,0.));
#151 = ADVANCED_FACE('',(#152),#164,.T.);
#152 = FACE_BOUND('',#153,.F.);
#153 = EDGE_LOOP('',(#154,#155,#156,#163));
#154 = ORIENTED_EDGE('',*,*,#83,.F.);
#155 = ORIENTED_EDGE('',*,*,#141,.F.);
#156 = ORIENTED_EDGE('',*,*,#157,.T.);
#157 = EDGE_CURVE('',#133,#108,#158,.T.);
#158 = CIRCLE('',#159,0.6);
#159 = AXIS2_PLACEMENT_3D('',#160,#161,#162);
#160 = CARTESIAN_POINT('',(3.469704525612,0.929704525612,5.3));
#161 = DIRECTION('',(0.,0.,1.));
#162 = DIRECTION('',(-0.866025403784,0.5,0.));
#163 = ORIENTED_EDGE('',*,*,#107,.T.);
#164 = CYLINDRICAL_SURFACE('',#165,0.6);
#165 = AXIS2_PLACEMENT_3D('',#166,#167,#168);
#166 = CARTESIAN_POINT('',(3.469704525612,0.929704525612,0.));
#167 = DIRECTION('',(0.,0.,-1.));
#168 = DIRECTION('',(-0.866025403784,0.5,0.));
#169 = ADVANCED_FACE('',(#170,#190,#201,#212),#223,.T.);
#170 = FACE_BOUND('',#171,.T.);
#171 = EDGE_LOOP('',(#172,#173,#174,#183));
#172 = ORIENTED_EDGE('',*,*,#115,.T.);
#173 = ORIENTED_EDGE('',*,*,#132,.T.);
#174 = ORIENTED_EDGE('',*,*,#175,.F.);
#175 = EDGE_CURVE('',#176,#133,#178,.T.);
#176 = VERTEX_POINT('',#177);
#177 = CARTESIAN_POINT('',(2.950089283342,1.229704525612,5.3));
#178 = CIRCLE('',#179,0.6);
#179 = AXIS2_PLACEMENT_3D('',#180,#181,#182);
#180 = CARTESIAN_POINT('',(3.469704525612,0.929704525612,5.3));
#181 = DIRECTION('',(0.,0.,1.));
#182 = DIRECTION('',(-0.866025403784,0.5,0.));
#183 = ORIENTED_EDGE('',*,*,#184,.F.);
#184 = EDGE_CURVE('',#108,#176,#185,.T.);
#185 = CIRCLE('',#186,0.6);
#186 = AXIS2_PLACEMENT_3D('',#187,#188,#189);
#187 = CARTESIAN_POINT('',(3.469704525612,0.929704525612,5.3));
#188 = DIRECTION('',(0.,0.,1.));
#189 = DIRECTION('',(-0.866025403784,0.5,0.));
#190 = FACE_BOUND('',#191,.T.);
#191 = EDGE_LOOP('',(#192));
#192 = ORIENTED_EDGE('',*,*,#193,.F.);
#193 = EDGE_CURVE('',#194,#194,#196,.T.);
#194 = VERTEX_POINT('',#195);
#195 = CARTESIAN_POINT('',(0.292933832338,0.959112920653,5.3));
#196 = ELLIPSE('',#197,0.20001138873,0.2);
#197 = AXIS2_PLACEMENT_3D('',#198,#199,#200);
#198 = CARTESIAN_POINT('',(0.468395161347,0.863126866323,5.3));
#199 = DIRECTION('',(0.,0.,1.));
#200 = DIRECTION('',(-0.489997886814,-0.871723620718,0.));
#201 = FACE_BOUND('',#202,.T.);
#202 = EDGE_LOOP('',(#203));
#203 = ORIENTED_EDGE('',*,*,#204,.T.);
#204 = EDGE_CURVE('',#205,#205,#207,.T.);
#205 = VERTEX_POINT('',#206);
#206 = CARTESIAN_POINT('',(-1.273057343563,0.735,5.3));
#207 = CIRCLE('',#208,0.2);
#208 = AXIS2_PLACEMENT_3D('',#209,#210,#211);
#209 = CARTESIAN_POINT('',(-1.099852262806,0.635,5.3));
#210 = DIRECTION('',(0.,0.,-1.));
#211 = DIRECTION('',(-0.866025403784,0.5,0.));
#212 = FACE_BOUND('',#213,.T.);
#213 = EDGE_LOOP('',(#214));
#214 = ORIENTED_EDGE('',*,*,#215,.T.);
#215 = EDGE_CURVE('',#216,#216,#218,.T.);
#216 = VERTEX_POINT('',#217);
#217 = CARTESIAN_POINT('',(-0.808205080757,-0.999852262806,5.3));
#218 = CIRCLE('',#219,0.2);
#219 = AXIS2_PLACEMENT_3D('',#220,#221,#222);
#220 = CARTESIAN_POINT('',(-0.635,-1.099852262806,5.3));
#221 = DIRECTION('',(0.,0.,-1.));
#222 = DIRECTION('',(-0.866025403784,0.5,0.));
#223 = PLANE('',#224);
#224 = AXIS2_PLACEMENT_3D('',#225,#226,#227);
#225 = CARTESIAN_POINT('',(0.,0.,5.3));
#226 = DIRECTION('',(0.,0.,1.));
#227 = DIRECTION('',(-0.866025403784,0.5,0.));
#228 = ADVANCED_FACE('',(#229),#239,.T.);
#229 = FACE_BOUND('',#230,.T.);
#230 = EDGE_LOOP('',(#231,#238));
#231 = ORIENTED_EDGE('',*,*,#232,.F.);
#232 = EDGE_CURVE('',#133,#108,#233,.T.);
#233 = CIRCLE('',#234,3.5);
#234 = AXIS2_PLACEMENT_3D('',#235,#236,#237);
#235 = CARTESIAN_POINT('',(0.,0.,5.3));
#236 = DIRECTION('',(0.,0.,1.));
#237 = DIRECTION('',(-0.866025403784,0.5,0.));
#238 = ORIENTED_EDGE('',*,*,#157,.T.);
#239 = PLANE('',#240);
#240 = AXIS2_PLACEMENT_3D('',#241,#242,#243);
#241 = CARTESIAN_POINT('',(3.469704525612,0.929704525612,5.3));
#242 = DIRECTION('',(0.,0.,1.));
#243 = DIRECTION('',(-0.866025403784,0.5,0.));
#244 = ADVANCED_FACE('',(#245),#250,.T.);
#245 = FACE_BOUND('',#246,.T.);
#246 = EDGE_LOOP('',(#247,#248,#249));
#247 = ORIENTED_EDGE('',*,*,#175,.T.);
#248 = ORIENTED_EDGE('',*,*,#232,.T.);
#249 = ORIENTED_EDGE('',*,*,#184,.T.);
#250 = PLANE('',#251);
#251 = AXIS2_PLACEMENT_3D('',#252,#253,#254);
#252 = CARTESIAN_POINT('',(0.,0.,5.3));
#253 = DIRECTION('',(0.,0.,1.));
#254 = DIRECTION('',(-0.866025403784,0.5,0.));
#255 = ADVANCED_FACE('',(#256),#275,.F.);
#256 = FACE_BOUND('',#257,.F.);
#257 = EDGE_LOOP('',(#258,#267,#273,#274));
#258 = ORIENTED_EDGE('',*,*,#259,.F.);
#259 = EDGE_CURVE('',#260,#260,#262,.T.);
#260 = VERTEX_POINT('',#261);
#261 = CARTESIAN_POINT('',(0.275782970819,0.928600929674,2.020195930435)
  );
#262 = CIRCLE('',#263,0.2);
#263 = AXIS2_PLACEMENT_3D('',#264,#265,#266);
#264 = CARTESIAN_POINT('',(0.451244171357,0.832614646789,2.020171362456)
  );
#265 = DIRECTION('',(-5.228935807846E-03,-9.302462270927E-03,
    -0.999943059592));
#266 = DIRECTION('',(-0.87730600269,0.479931414428,1.22839891111E-04));
#267 = ORIENTED_EDGE('',*,*,#268,.T.);
#268 = EDGE_CURVE('',#260,#194,#269,.T.);
#269 = LINE('',#270,#271);
#270 = CARTESIAN_POINT('',(0.275782970819,0.928600929674,2.020195930435)
  );
#271 = VECTOR('',#272,1.);
#272 = DIRECTION('',(5.228935807846E-03,9.302462270927E-03,
    0.999943059592));
#273 = ORIENTED_EDGE('',*,*,#193,.F.);
#274 = ORIENTED_EDGE('',*,*,#268,.F.);
#275 = CYLINDRICAL_SURFACE('',#276,0.2);
#276 = AXIS2_PLACEMENT_3D('',#277,#278,#279);
#277 = CARTESIAN_POINT('',(0.451244171357,0.832614646789,2.020171362456)
  );
#278 = DIRECTION('',(-5.228935807846E-03,-9.302462270927E-03,
    -0.999943059592));
#279 = DIRECTION('',(-0.87730600269,0.479931414428,1.22839891111E-04));
#280 = ADVANCED_FACE('',(#281),#300,.F.);
#281 = FACE_BOUND('',#282,.T.);
#282 = EDGE_LOOP('',(#283,#292,#298,#299));
#283 = ORIENTED_EDGE('',*,*,#284,.F.);
#284 = EDGE_CURVE('',#285,#285,#287,.T.);
#285 = VERTEX_POINT('',#286);
#286 = CARTESIAN_POINT('',(-1.273057343563,0.735,2.04));
#287 = CIRCLE('',#288,0.2);
#288 = AXIS2_PLACEMENT_3D('',#289,#290,#291);
#289 = CARTESIAN_POINT('',(-1.099852262806,0.635,2.04));
#290 = DIRECTION('',(0.,0.,1.));
#291 = DIRECTION('',(-0.866025403784,0.5,0.));
#292 = ORIENTED_EDGE('',*,*,#293,.T.);
#293 = EDGE_CURVE('',#285,#205,#294,.T.);
#294 = LINE('',#295,#296);
#295 = CARTESIAN_POINT('',(-1.273057343563,0.735,2.04));
#296 = VECTOR('',#297,1.);
#297 = DIRECTION('',(0.,0.,1.));
#298 = ORIENTED_EDGE('',*,*,#204,.F.);
#299 = ORIENTED_EDGE('',*,*,#293,.F.);
#300 = CYLINDRICAL_SURFACE('',#301,0.2);
#301 = AXIS2_PLACEMENT_3D('',#302,#303,#304);
#302 = CARTESIAN_POINT('',(-1.099852262806,0.635,2.04));
#303 = DIRECTION('',(0.,0.,-1.));
#304 = DIRECTION('',(-0.866025403784,0.5,0.));
#305 = ADVANCED_FACE('',(#306),#325,.F.);
#306 = FACE_BOUND('',#307,.T.);
#307 = EDGE_LOOP('',(#308,#317,#323,#324));
#308 = ORIENTED_EDGE('',*,*,#309,.F.);
#309 = EDGE_CURVE('',#310,#310,#312,.T.);
#310 = VERTEX_POINT('',#311);
#311 = CARTESIAN_POINT('',(-0.808205080757,-0.999852262806,2.032));
#312 = CIRCLE('',#313,0.2);
#313 = AXIS2_PLACEMENT_3D('',#314,#315,#316);
#314 = CARTESIAN_POINT('',(-0.635,-1.099852262806,2.032));
#315 = DIRECTION('',(0.,0.,1.));
#316 = DIRECTION('',(-0.866025403784,0.5,0.));
#317 = ORIENTED_EDGE('',*,*,#318,.T.);
#318 = EDGE_CURVE('',#310,#216,#319,.T.);
#319 = LINE('',#320,#321);
#320 = CARTESIAN_POINT('',(-0.808205080757,-0.999852262806,2.032));
#321 = VECTOR('',#322,1.);
#322 = DIRECTION('',(0.,0.,1.));
#323 = ORIENTED_EDGE('',*,*,#215,.F.);
#324 = ORIENTED_EDGE('',*,*,#318,.F.);
#325 = CYLINDRICAL_SURFACE('',#326,0.2);
#326 = AXIS2_PLACEMENT_3D('',#327,#328,#329);
#327 = CARTESIAN_POINT('',(-0.635,-1.099852262806,2.032));
#328 = DIRECTION('',(0.,0.,-1.));
#329 = DIRECTION('',(-0.866025403784,0.5,0.));
#330 = ADVANCED_FACE('',(#331),#334,.T.);
#331 = FACE_BOUND('',#332,.T.);
#332 = EDGE_LOOP('',(#333));
#333 = ORIENTED_EDGE('',*,*,#259,.F.);
#334 = PLANE('',#335);
#335 = AXIS2_PLACEMENT_3D('',#336,#337,#338);
#336 = CARTESIAN_POINT('',(0.451244171357,0.832614646789,2.020171362456)
  );
#337 = DIRECTION('',(5.228935807846E-03,9.302462270927E-03,
    0.999943059592));
#338 = DIRECTION('',(0.87730600269,-0.479931414428,-1.22839891111E-04));
#339 = ADVANCED_FACE('',(#340),#343,.T.);
#340 = FACE_BOUND('',#341,.F.);
#341 = EDGE_LOOP('',(#342));
#342 = ORIENTED_EDGE('',*,*,#284,.F.);
#343 = PLANE('',#344);
#344 = AXIS2_PLACEMENT_3D('',#345,#346,#347);
#345 = CARTESIAN_POINT('',(-1.099852262806,0.635,2.04));
#346 = DIRECTION('',(0.,0.,1.));
#347 = DIRECTION('',(-0.866025403784,0.5,0.));
#348 = ADVANCED_FACE('',(#349),#352,.T.);
#349 = FACE_BOUND('',#350,.F.);
#350 = EDGE_LOOP('',(#351));
#351 = ORIENTED_EDGE('',*,*,#309,.F.);
#352 = PLANE('',#353);
#353 = AXIS2_PLACEMENT_3D('',#354,#355,#356);
#354 = CARTESIAN_POINT('',(-0.635,-1.099852262806,2.032));
#355 = DIRECTION('',(0.,0.,1.));
#356 = DIRECTION('',(-0.866025403784,0.5,0.));
#357 = ( GEOMETRIC_REPRESENTATION_CONTEXT(3) 
GLOBAL_UNCERTAINTY_ASSIGNED_CONTEXT((#361)) GLOBAL_UNIT_ASSIGNED_CONTEXT
((#358,#359,#360)) REPRESENTATION_CONTEXT('Context #1',
  '3D Context with UNIT and UNCERTAINTY') );
#358 = ( LENGTH_UNIT() NAMED_UNIT(*) SI_UNIT(.MILLI.,.METRE.) );
#359 = ( NAMED_UNIT(*) PLANE_ANGLE_UNIT() SI_UNIT($,.RADIAN.) );
#360 = ( NAMED_UNIT(*) SI_UNIT($,.STERADIAN.) SOLID_ANGLE_UNIT() );
#361 = UNCERTAINTY_MEASURE_WITH_UNIT(LENGTH_MEASURE(1.E-07),#358,
  'distance_accuracy_value','confusion accuracy');
#362 = PRODUCT_RELATED_PRODUCT_CATEGORY('part',$,(#7));
#363 = MECHANICAL_DESIGN_GEOMETRIC_PRESENTATION_REPRESENTATION('',(#364)
  ,#357);
#364 = STYLED_ITEM('color',(#365),#15);
#365 = PRESENTATION_STYLE_ASSIGNMENT((#366,#372));
#366 = SURFACE_STYLE_USAGE(.BOTH.,#367);
#367 = SURFACE_SIDE_STYLE('',(#368));
#368 = SURFACE_STYLE_FILL_AREA(#369);
#369 = FILL_AREA_STYLE('',(#370));
#370 = FILL_AREA_STYLE_COLOUR('',#371);
#371 = COLOUR_RGB('',0.147999998088,0.144999993226,0.144999993226);
#372 = CURVE_STYLE('',#373,POSITIVE_LENGTH_MEASURE(0.1),#374);
#373 = DRAUGHTING_PRE_DEFINED_CURVE_FONT('continuous');
#374 = COLOUR_RGB('',9.803921802644E-02,9.803921802644E-02,
  9.803921802644E-02);
ENDSEC;
END-ISO-10303-21;
