#VRML V2.0 utf8
#kicad StepUp wrl exported

Shape {
    appearance Appearance {material DEF PIN-01 Material {
        ambientIntensity 0.271
        diffuseColor 0.824 0.820 0.781
        specularColor 0.328 0.258 0.172
        emissiveColor 0.0 0.0 0.0
        shininess 0.70
        transparency 0.0
        }
    }
}
Shape {
    appearance Appearance {material DEF MET-01 Material {
        ambientIntensity 0.249999
        diffuseColor 0.298 0.298 0.298
        specularColor 0.398 0.398 0.398
        emissiveColor 0.0 0.0 0.0
        shininess 0.056122
        transparency 0.0
        }
    }
}
Shape {
    appearance Appearance {material DEF PIN-02 Material {
        ambientIntensity 0.379
        diffuseColor 0.859 0.738 0.496
        specularColor 0.137 0.145 0.184
        emissiveColor 0.0 0.0 0.0
        shininess 0.40
        transparency 0.0
        }
    }
}
Shape {
    appearance Appearance {material DEF IC-BODY-EPOXY-04 Material {
        ambientIntensity 0.293
        diffuseColor 0.148 0.145 0.145
        specularColor 0.180 0.168 0.160
        emissiveColor 0.0 0.0 0.0
        shininess 0.35
        transparency 0.0
        }
    }
}
Shape {
    appearance Appearance {material DEF RES-SMD-01 Material {
        diffuseColor 0.082 0.086 0.094
        emissiveColor 0.000 0.000 0.000
        specularColor 0.066 0.063 0.063
        ambientIntensity 0.638
        transparency 0.0
        shininess 0.3
        }
    }
}
Shape {
    appearance Appearance {material DEF IC-BODY-EPOXY-01 Material {
        ambientIntensity 0.117
        diffuseColor 0.250 0.262 0.281
        specularColor 0.316 0.281 0.176
        emissiveColor 0.0 0.0 0.0
        shininess 0.25
        transparency 0.0
        }
    }
}
Shape {
    appearance Appearance {material DEF CAP-CERAMIC-05 Material {
        ambientIntensity 0.179
        diffuseColor 0.273 0.273 0.273
        specularColor 0.203 0.188 0.176
        emissiveColor 0.0 0.0 0.0
        shininess 0.15
        transparency 0.0
        }
    }
}
Shape {
    appearance Appearance {material DEF CAP-CERAMIC-06 Material {
        ambientIntensity 0.453
        diffuseColor 0.379 0.270 0.215
        specularColor 0.223 0.223 0.223
        emissiveColor 0.0 0.0 0.0
        shininess 0.15
        transparency 0.0
        }
    }
}
Shape {
    appearance Appearance {material DEF RES-THT-01 Material {
        ambientIntensity 0.149
        diffuseColor 0.883 0.711 0.492
        specularColor 0.043 0.121 0.281
        emissiveColor 0.0 0.0 0.0
        shininess 0.40
        transparency 0.0
        }
    }
}
Shape {
    appearance Appearance {material DEF PLASTIC-BLUE-01 Material {
        ambientIntensity 0.565
        diffuseColor 0.137 0.402 0.727
        specularColor 0.359 0.379 0.270
        emissiveColor 0.0 0.0 0.0
        shininess 0.25
        transparency 0.0
        }
    }
}
Shape {
    appearance Appearance {material DEF PLASTIC-GREEN-01 Material {
        ambientIntensity 0.315
        diffuseColor 0.340 0.680 0.445
        specularColor 0.176 0.105 0.195
        emissiveColor 0.0 0.0 0.0
        shininess 0.25
        transparency 0.0
        }
    }
}
Shape {
    appearance Appearance {material DEF PLASTIC-ORANGE-01 Material {
        ambientIntensity 0.284
        diffuseColor 0.809 0.426 0.148
        specularColor 0.039 0.102 0.145
        emissiveColor 0.0 0.0 0.0
        shininess 0.25
        transparency 0.0
        }
    }
}
Shape {
    appearance Appearance {material DEF RED-BODY Material {
        ambientIntensity 0.683
        diffuseColor 0.700 0.100 0.050
        emissiveColor 0.000 0.000 0.000
        specularColor 0.300 0.400 0.150
        shininess 0.25
        transparency 0.0
        }
    }
}
Shape {
    appearance Appearance {material DEF CAP-CERAMIC-02 Material {
        ambientIntensity 0.683
        diffuseColor 0.578 0.336 0.352
        specularColor 0.105 0.273 0.270
        emissiveColor 0.0 0.0 0.0
        shininess 0.25
        transparency 0.0
        }
    }
}
Shape {
    appearance Appearance {material DEF PLASTIC-YELLOW-01 Material {
        ambientIntensity 0.522
        diffuseColor 0.832 0.680 0.066
        specularColor 0.160 0.203 0.320
        emissiveColor 0.0 0.0 0.0
        shininess 0.25
        transparency 0.0
        }
    }
}
Shape {
    appearance Appearance {material DEF PLASTIC-WHITE-01 Material {
        ambientIntensity 0.494
        diffuseColor 0.895 0.891 0.813
        specularColor 0.047 0.055 0.109
        emissiveColor 0.0 0.0 0.0
        shininess 0.25
        transparency 0.0
        }
    }
}
Shape {
    appearance Appearance {material DEF IC-LABEL-01 Material {
        ambientIntensity 0.082
        diffuseColor 0.691 0.664 0.598
        specularColor 0.000 0.000 0.000
        emissiveColor 0.0 0.0 0.0
        shininess 0.01
        transparency 0.0
        }
    }
}
Shape {
    appearance Appearance {material DEF LED-RED Material {
        ambientIntensity 0.789
        diffuseColor 0.700 0.100 0.050
        emissiveColor 0.000 0.000 0.000
        specularColor 0.300 0.400 0.150
        shininess 0.125
        transparency 0.15
        }
    }
}
Shape {
    appearance Appearance {material DEF LED-GREEN Material {
        ambientIntensity 0.789
        diffuseColor 0.400 0.700 0.150
        emissiveColor 0.000 0.000 0.000
        specularColor 0.600 0.300 0.100
        shininess 0.05
        transparency 0.15
        }
    }
}
Shape {
    appearance Appearance {material DEF LED-BLUE Material {
        ambientIntensity 0.789
        diffuseColor 0.100 0.250 0.700
        emissiveColor 0.000 0.000 0.000
        specularColor 0.500 0.600 0.300
        shininess 0.125
        transparency 0.15
        }
    }
}
Shape {
    appearance Appearance {material DEF LED-YELLOW Material {
        ambientIntensity 0.522
        diffuseColor 0.98 0.840 0.066
        specularColor 0.160 0.203 0.320
        emissiveColor 0.0 0.0 0.0
        shininess 0.125
        transparency 0.15
        }
    }
}
Shape {
    appearance Appearance {material DEF LED-WHITE Material {
        ambientIntensity 0.494
        diffuseColor 0.895 0.891 0.813
        specularColor 0.047 0.055 0.109
        emissiveColor 0.0 0.0 0.0
        shininess 0.125
        transparency 0.15
        }
    }
}
Shape {
    appearance Appearance {material DEF LED-GREY Material {
        ambientIntensity 0.494
        diffuseColor 0.27 0.25 0.27
        specularColor 0.5 0.5 0.6
        emissiveColor 0.0 0.0 0.0
        shininess 0.35
        transparency 0.15
        }
    }
}
Shape {
    appearance Appearance {material DEF LED-BLACK Material {
        ambientIntensity 0.494
        diffuseColor 0.1 0.05 0.1
        specularColor 0.6 0.5 0.6
        emissiveColor 0.0 0.0 0.0
        shininess 0.5
        transparency 0.15
        }
    }
}
Shape {
    appearance Appearance {material DEF GLASS-19 Material {
        ambientIntensity 0.2018212
        diffuseColor 0.400769 0.441922 0.459091
        specularColor 0.573887 0.649271 0.810811
        emissiveColor 0.000000 0.000000 0.000000
        shininess 0.127273
        transparency 0.37
        }
    }
}
Shape {
    appearance Appearance {material DEF GLASS-29 Material {
        ambientIntensity 0.379
        diffuseColor 0.859 0.738 0.496
        specularColor 0.137 0.145 0.184
        emissiveColor 0.0 0.0 0.0
        shininess 0.40
        transparency 0.39
        }
    }
}
Shape {
    appearance Appearance {material DEF GLASS-13 Material {
        ambientIntensity 0.250000
        diffuseColor 0.000000 0.631244 0.748016
        specularColor 0.915152 0.915152 0.915152
        emissiveColor 0.000000 0.000000 0.000000
        shininess 0.642424
        transparency 0.39
        }
    }
}
Shape {
    appearance Appearance {material DEF GLASS-GREEN Material {
        ambientIntensity 0.250000
        diffuseColor 0.000000 0.75 0.44
        specularColor 0.915152 0.915152 0.915152
        emissiveColor 0.000000 0.000000 0.000000
        shininess 0.642424
        transparency 0.39
        }
    }
}
Shape {
    appearance Appearance {material DEF GLASS-ORANGE Material {
        ambientIntensity 0.250000
        diffuseColor 0.75 0.44 0.000000
        specularColor 0.915152 0.915152 0.915152
        emissiveColor 0.000000 0.000000 0.000000
        shininess 0.642424
        transparency 0.39
        }
    }
}
Shape {
    appearance Appearance {material DEF BOARD-GREEN-02 Material {
        ambientIntensity 1
        diffuseColor 0.07 0.3 0.12
        specularColor 0.07 0.3 0.12
        emissiveColor 0.0 0.0 0.0
        shininess 0.40
        transparency 0.0
        }
    }
}
Shape {
    appearance Appearance {material DEF BOARD-BLUE-01 Material {
        ambientIntensity 1
        diffuseColor 0.07 0.12 0.3
        specularColor 0.07 0.12 0.3
        emissiveColor 0.0 0.0 0.0
        shininess 0.40
        transparency 0.0
        }
    }
}
Shape {
    appearance Appearance {material DEF BOARD-BLACK-03 Material {
        ambientIntensity 1
        diffuseColor 0.16 0.16 0.16
        specularColor 0.16 0.16 0.16
        emissiveColor 0.0 0.0 0.0
        shininess 0.40
        transparency 0.0
        }
    }
}
Shape {
    appearance Appearance {material DEF MET-ALUMINUM Material {
        ambientIntensity 0.256000
        diffuseColor 0.372322 0.371574 0.373173
        specularColor 0.556122 0.554201 0.556122
        emissiveColor 0.0 0.0 0.0
        shininess 0.127551
        transparency 0.0
        }
    }
}
Shape {
    appearance Appearance {material DEF MET-BRONZE Material {
        ambientIntensity 0.022727
        diffuseColor 0.714 0.4284 0.18144
        specularColor 0.393548 0.271906 0.166721
        emissiveColor 0.000000 0.000000 0.000000
        shininess 0.2
        transparency 0.0
        }
    }
}
Shape {
    appearance Appearance {material DEF MET-SILVER Material {
        ambientIntensity 0.022727
        diffuseColor 0.50754 0.50754 0.50754
        specularColor 0.508273 0.508273 0.508273
        emissiveColor 0.000000 0.000000 0.000000
        shininess 0.4
        transparency 0.0
        }
    }
}
Shape {
    appearance Appearance {material DEF MET-COPPER Material {
        ambientIntensity 0.022727
        diffuseColor 0.7038 0.27048 0.0828
        specularColor 0.780612 0.37 0.000000
        emissiveColor 0.000000 0.000000 0.000000
        shininess 0.2
        transparency 0.0
        }
    }
}
Shape { geometry IndexedFaceSet 
{ creaseAngle 1.00 coordIndex [0,1,2,-1,3,4,5,-1,0,6,1,-1,4,7,5,-1,8,9,0,-1,0,9,6,-1,5,10,11,-1,7,10,5,-1,8,12,9,-1,10,13,11,-1,8,14,12,-1,13,15,11,-1,16,17,8,-1,8,17,14,-1,11,18,19,-1,15,18,11,-1,16,20,17,-1,18,21,19,-1,16,22,20,-1,21,23,19,-1,16,24,22,-1,19,25,16,-1,16,25,24,-1,23,25,19,-1]
coord Coordinate { point [1.27895 0.512869 0,1.22569 0.556044 0,1.25297 0.573432 0,1.37182 0.129876 0,1.33851 0.131412 0,1.36404 0.195317 0,1.20105 0.535093 0,1.30575 0.137623 0,1.30201 0.451134 0,1.1795 0.510973 0,1.2742 0.148383 0,1.35314 0.260311 0,1.16145 0.484135 0,1.24447 0.16348 0,1.14686 0.454156 0,1.21716 0.182611 0,1.32209 0.388366 0,1.13663 0.422422 0,1.19282 0.205397 0,1.33915 0.32471 0,1.13098 0.389564 0,1.17193 0.231382 0,1.13001 0.356237 0,1.15491 0.260049 0,1.13373 0.323105 0,1.14209 0.290828 0]
}}
appearance Appearance{material USE IC-BODY-EPOXY-04 }}
Shape { geometry IndexedFaceSet 
{ creaseAngle 1.00 coordIndex [0,1,2,-1,3,4,5,-1,2,6,7,-1,1,6,2,-1,8,9,3,-1,3,9,4,-1,6,10,7,-1,11,12,8,-1,8,12,9,-1,7,13,14,-1,14,13,15,-1,10,13,7,-1,16,17,11,-1,11,17,12,-1,15,18,19,-1,13,18,15,-1,20,21,22,-1,22,21,16,-1,16,21,17,-1,19,23,24,-1,18,23,19,-1,20,25,21,-1,20,26,25,-1,23,27,24,-1,26,28,25,-1,29,30,23,-1,23,30,27,-1,28,31,25,-1,25,31,32,-1,29,33,30,-1,31,34,32,-1,29,35,33,-1,34,36,32,-1,29,37,35,-1,36,38,32,-1,29,39,37,-1,38,40,32,-1,29,41,39,-1,40,42,32,-1,29,43,41,-1,44,43,29,-1,32,45,46,-1,42,45,32,-1,44,47,43,-1,45,48,46,-1,44,49,47,-1,48,50,46,-1,44,51,49,-1,50,52,46,-1,44,53,51,-1,52,54,46,-1,44,55,53,-1,54,56,46,-1,44,57,55,-1,56,58,46,-1,44,59,57,-1,58,60,46,-1,44,61,59,-1,60,62,46,-1,44,63,61,-1,62,64,46,-1,44,65,63,-1,64,66,46,-1,44,67,65,-1,66,68,46,-1,69,70,44,-1,44,70,67,-1,68,71,46,-1,69,72,70,-1,46,73,74,-1,71,73,46,-1,69,75,72,-1,73,76,74,-1,69,77,75,-1,76,78,74,-1,69,79,77,-1,78,80,74,-1,69,81,79,-1,80,82,74,-1,69,83,81,-1,82,84,74,-1,69,85,83,-1,84,86,74,-1,69,87,85,-1,86,88,74,-1,69,89,87,-1,88,90,74,-1,69,91,89,-1,90,92,74,-1,69,93,91,-1,92,94,74,-1,69,95,93,-1,94,96,74,-1,69,97,95,-1,96,98,74,-1,69,99,97,-1,98,100,74,-1,69,101,99,-1,100,102,74,-1,69,103,101,-1,102,104,74,-1,69,105,103,-1,104,106,74,-1,69,107,105,-1,106,108,74,-1,69,109,107,-1,108,110,74,-1,69,111,109,-1,110,112,74,-1,69,113,111,-1,112,114,74,-1,69,115,113,-1,114,116,74,-1,69,117,115,-1,116,118,74,-1,69,119,117,-1,118,120,74,-1,69,121,119,-1,120,122,74,-1,69,123,121,-1,122,124,74,-1,69,125,123,-1,124,126,74,-1,69,127,125,-1,126,128,74,-1,69,129,127,-1,128,130,74,-1,69,131,129,-1,130,132,74,-1,69,133,131,-1,74,133,69,-1,132,134,74,-1,74,135,133,-1,134,136,74,-1,74,137,135,-1,136,138,74,-1,74,138,137,-1]
coord Coordinate { point [1.25297 0.573432 0,1.22569 0.556044 0,1.2229 0.635026 0,1.37656 0.0618832 0,1.33851 0.131412 0,1.37182 0.129876 0,1.20105 0.535093 0,1.18981 0.695049 0,1.37794 -0.00626065 0,1.30575 0.137623 0,1.1795 0.510973 0,1.37594 -0.0743892 0,1.2742 0.148383 0,1.16145 0.484135 0,1.15378 0.753352 0,1.11489 0.809792 0,1.37058 -0.142336 0,1.24447 0.16348 0,1.14686 0.454156 0,1.07325 0.864227 0,1.34982 -0.277019 0,1.21716 0.182611 0,1.36186 -0.209934 0,1.13663 0.422422 0,1.02895 0.916525 0,1.19282 0.205397 0,1.33447 -0.343426 0,0.982098 0.966555 0,1.31585 -0.408992 0,1.13098 0.389564 0,0.932822 1.01419 0,1.29402 -0.473559 0,1.17193 0.231382 0,0.881237 1.05932 0,1.26902 -0.536966 0,0.827473 1.10183 0,1.24092 -0.59906 0,0.771661 1.14162 0,1.20978 -0.659688 0,0.71394 1.17857 0,1.17568 -0.718702 0,0.654452 1.21262 0,1.1387 -0.775958 0,0.593346 1.24366 0,1.13001 0.356237 0,1.09894 -0.831315 0,1.15491 0.260049 0,0.530771 1.27162 0,1.05649 -0.884638 0,0.466884 1.29644 0,1.01145 -0.935797 0,0.401841 1.31806 0,0.963939 -0.984666 0,0.335804 1.33641 0,0.91407 -1.03113 0,0.268936 1.35145 0,0.861964 -1.07506 0,0.201403 1.36315 0,0.80775 -1.11637 0,0.133372 1.37148 0,0.75156 -1.15495 0,0.0650103 1.37642 0,0.69353 -1.1907 0,-0.00351198 1.37795 0,0.633804 -1.22354 0,-0.0720255 1.37607 0,0.572528 -1.25338 0,-0.140361 1.37078 0,0.50985 -1.28016 0,1.13373 0.323105 0,-0.208349 1.36211 0,0.445925 -1.3038 0,-0.275822 1.35006 0,0.380909 -1.32426 0,1.14209 0.290828 0,-0.342612 1.33468 0,0.314961 -1.34147 0,-0.408554 1.31599 0,0.248243 -1.3554 0,-0.473486 1.29405 0,0.180917 -1.36602 0,-0.537246 1.2689 0,0.113149 -1.3733 0,-0.599678 1.24062 0,0.0451035 -1.37721 0,-0.660625 1.20926 0,-0.0230521 -1.37776 0,-0.719938 1.17492 0,-0.0911513 -1.37493 0,-0.77747 1.13767 0,-0.159027 -1.36874 0,-0.833078 1.0976 0,-0.226515 -1.3592 0,-0.886626 1.05482 0,-0.293447 -1.34634 0,-0.937979 1.00943 0,-0.359662 -1.33018 0,-0.987012 0.961537 0,-0.424997 -1.31077 0,-1.0336 0.911268 0,-0.489293 -1.28815 0,-1.07764 0.858745 0,-0.552391 -1.26238 0,-1.11901 0.804098 0,-0.614137 -1.23352 0,-1.1576 0.747461 0,-0.674381 -1.20165 0,-1.19334 0.688975 0,-0.732976 -1.16683 0,-1.22595 0.629124 0,-0.789776 -1.12916 0,-1.25556 0.567734 0,-0.844645 -1.08872 0,-1.28209 0.504954 0,-0.897447 -1.04563 0,-1.3055 0.440939 0,-0.948053 -0.999971 0,-1.3257 0.375846 0,-0.99634 -0.951868 0,-1.34267 0.309833 0,-1.04219 -0.901436 0,-1.35634 0.243061 0,-1.08549 -0.848799 0,-1.3667 0.175696 0,-1.12613 -0.794086 0,-1.37372 0.1079 0,-1.16402 -0.737429 0,-1.37737 0.0398401 0,-1.19906 -0.678969 0,-1.37766 -0.0283171 0,-1.23117 -0.618847 0,-1.37457 -0.096405 0,-1.26026 -0.557211 0,-1.36812 -0.164257 0,-1.28627 -0.494212 0,-1.35833 -0.231707 0,-1.30914 -0.430004 0,-1.34521 -0.29859 0,-1.3288 -0.364743 0]
}}
appearance Appearance{material USE IC-BODY-EPOXY-04 }}
Shape { geometry IndexedFaceSet 
{ creaseAngle 1.00 coordIndex [0,1,2,-1,2,1,3,-1,3,1,4,-1,4,1,5,-1,5,1,6,-1,7,8,9,-1,9,8,10,-1,10,8,11,-1,11,8,0,-1,0,8,1,-1,6,12,13,-1,13,12,14,-1,14,12,15,-1,15,12,16,-1,1,12,6,-1,17,18,19,-1,19,18,20,-1,20,18,21,-1,21,18,7,-1,7,18,8,-1,16,22,23,-1,23,22,24,-1,24,22,25,-1,12,22,16,-1,26,27,28,-1,28,27,29,-1,29,27,17,-1,17,27,18,-1,22,30,25,-1,26,31,27,-1]
coord Coordinate { point [1.59802 0.410516 0,1.32209 0.388366 0,1.58918 0.443491 0,1.57568 0.474848 0,1.55781 0.503932 0,1.53593 0.530136 0,1.5105 0.552913 0,1.58458 0.276412 0,1.33915 0.32471 0,1.59522 0.308852 0,1.60107 0.342486 0,1.60201 0.376611 0,1.30201 0.451134 0,1.48205 0.571786 0,1.45118 0.586361 0,1.41853 0.596335 0,1.38478 0.601498 0,1.50001 0.171479 0,1.35314 0.260311 0,1.52665 0.192824 0,1.54994 0.217786 0,1.56939 0.245844 0,1.27895 0.512869 0,1.35065 0.601744 0,1.31683 0.597066 0,1.28404 0.587563 0,1.40579 0.133177 0,1.36404 0.195317 0,1.43894 0.141341 0,1.47057 0.154198 0,1.25297 0.573432 0,1.37182 0.129876 0]
}}
appearance Appearance{material USE IC-BODY-EPOXY-04 }}
Shape { geometry IndexedFaceSet 
{ creaseAngle 1.00 coordIndex [0,1,2,-1,2,1,3,-1,3,4,5,-1,1,4,3,-1,4,6,5,-1,5,6,7,-1,6,8,7,-1,7,8,9,-1,8,10,9,-1,9,10,11,-1,11,10,12,-1,10,13,12,-1,12,13,14,-1,13,15,14,-1,15,16,14,-1,14,16,17,-1,17,16,18,-1,16,19,18,-1,19,20,18,-1,18,20,21,-1,20,22,21,-1,21,22,23,-1,22,24,23,-1,23,24,25,-1,24,26,25,-1,25,26,27,-1,26,28,27,-1,27,28,29,-1,29,28,30,-1,28,31,30,-1,31,32,30,-1,30,32,33,-1,33,32,34,-1,32,35,34,-1,34,36,37,-1,35,36,34,-1,37,38,39,-1,36,38,37,-1,39,40,41,-1,38,40,39,-1,41,42,43,-1,40,42,41,-1,43,44,45,-1,42,44,43,-1,45,46,47,-1,44,46,45,-1,47,48,49,-1,46,48,47,-1,49,50,51,-1,48,50,49,-1,51,52,53,-1,50,52,51,-1,53,54,55,-1,52,54,53,-1,54,56,55,-1,55,56,57,-1,56,58,57,-1,57,58,59,-1,58,60,59,-1,59,60,61,-1,61,60,62,-1,60,63,62,-1,63,64,62,-1,62,64,65,-1,64,66,65,-1,65,66,67,-1,66,68,67,-1,67,68,69,-1,68,70,69,-1,69,70,71,-1,70,72,71,-1,71,72,73,-1,73,72,74,-1,72,75,74,-1,75,76,74,-1,74,76,77,-1,76,78,77,-1,77,78,79,-1,78,80,79,-1,79,80,81,-1,81,80,82,-1,80,83,82,-1,83,84,82,-1,82,84,85,-1,85,84,86,-1,84,87,86,-1,87,88,86,-1,86,88,89,-1]
coord Coordinate { point [1.25297 0.573432 0,1.2229 0.635026 0,1.25297 0.573432 2.08661,1.2229 0.635026 2.08661,1.18981 0.695049 0,1.18981 0.695049 2.08661,1.15378 0.753352 0,1.15378 0.753352 2.08661,1.11489 0.809792 0,1.11489 0.809792 2.08661,1.07325 0.864227 0,1.07325 0.864227 2.08661,1.02895 0.916525 2.08661,1.02895 0.916525 0,0.982098 0.966555 2.08661,0.982098 0.966555 0,0.932822 1.01419 0,0.932822 1.01419 2.08661,0.881237 1.05932 2.08661,0.881237 1.05932 0,0.827473 1.10183 0,0.827473 1.10183 2.08661,0.771661 1.14162 0,0.771661 1.14162 2.08661,0.71394 1.17857 0,0.71394 1.17857 2.08661,0.654452 1.21262 0,0.654452 1.21262 2.08661,0.593346 1.24366 0,0.593346 1.24366 2.08661,0.530771 1.27162 2.08661,0.530771 1.27162 0,0.466884 1.29644 0,0.466884 1.29644 2.08661,0.401841 1.31806 2.08661,0.401841 1.31806 0,0.335804 1.33641 0,0.335804 1.33641 2.08661,0.268936 1.35145 0,0.268936 1.35145 2.08661,0.201403 1.36315 0,0.201403 1.36315 2.08661,0.133372 1.37148 0,0.133372 1.37148 2.08661,0.0650103 1.37642 0,0.0650103 1.37642 2.08661,-0.00351198 1.37795 0,-0.00351198 1.37795 2.08661,-0.0720255 1.37607 0,-0.0720255 1.37607 2.08661,-0.140361 1.37078 0,-0.140361 1.37078 2.08661,-0.208349 1.36211 0,-0.208349 1.36211 2.08661,-0.275822 1.35006 0,-0.275822 1.35006 2.08661,-0.342612 1.33468 0,-0.342612 1.33468 2.08661,-0.408554 1.31599 0,-0.408554 1.31599 2.08661,-0.473486 1.29405 0,-0.473486 1.29405 2.08661,-0.537246 1.2689 2.08661,-0.537246 1.2689 0,-0.599678 1.24062 0,-0.599678 1.24062 2.08661,-0.660625 1.20926 0,-0.660625 1.20926 2.08661,-0.719938 1.17492 0,-0.719938 1.17492 2.08661,-0.77747 1.13767 0,-0.77747 1.13767 2.08661,-0.833078 1.0976 0,-0.833078 1.0976 2.08661,-0.886626 1.05482 2.08661,-0.886626 1.05482 0,-0.937979 1.00943 0,-0.937979 1.00943 2.08661,-0.987012 0.961537 0,-0.987012 0.961537 2.08661,-1.0336 0.911268 0,-1.0336 0.911268 2.08661,-1.07764 0.858745 2.08661,-1.07764 0.858745 0,-1.11901 0.804098 0,-1.11901 0.804098 2.08661,-1.1576 0.747461 2.08661,-1.1576 0.747461 0,-1.19334 0.688975 0,-1.19334 0.688975 2.08661]
}}
appearance Appearance{material USE IC-BODY-EPOXY-04 }}
Shape { geometry IndexedFaceSet 
{ creaseAngle 1.00 coordIndex [0,1,2,-1,2,1,3,-1,1,4,3,-1,3,4,5,-1,4,6,5,-1,5,6,7,-1,6,8,7,-1,7,8,9,-1,9,8,10,-1,8,11,10,-1,11,12,10,-1,10,12,13,-1,13,12,14,-1,12,15,14,-1,14,16,17,-1,15,16,14,-1,17,18,19,-1,16,18,17,-1,19,20,21,-1,21,20,22,-1,18,20,19,-1,20,23,22,-1,23,24,22,-1,22,24,25,-1,24,26,25,-1,25,26,27,-1,26,28,27,-1,27,28,29,-1,29,28,30,-1,28,31,30,-1,31,32,30,-1,30,32,33,-1,33,32,34,-1,32,35,34,-1,34,35,36,-1,35,37,36,-1,37,38,36,-1,36,38,39,-1,39,38,40,-1,38,41,40,-1,41,42,40,-1,40,42,43,-1,42,44,43,-1,43,44,45,-1,44,46,45,-1,45,46,47,-1,47,48,49,-1,49,48,50,-1,46,48,47,-1,48,51,50,-1,50,52,53,-1,51,52,50,-1,53,54,55,-1,55,54,56,-1,52,54,53,-1,56,57,58,-1,54,57,56,-1,58,59,60,-1,57,59,58,-1,59,61,60,-1,60,62,63,-1,61,62,60,-1,63,64,65,-1,62,64,63,-1,65,66,67,-1,64,66,65,-1,67,68,69,-1,66,68,67,-1,69,70,71,-1,68,70,69,-1,70,72,71,-1,71,72,73,-1,72,74,73,-1,73,74,75,-1,74,76,75,-1,75,76,77,-1,77,76,78,-1,76,79,78,-1,79,80,78,-1,78,80,81,-1,81,82,83,-1,80,82,81,-1,83,84,85,-1,82,84,83,-1,85,86,87,-1,84,86,85,-1,87,88,89,-1,86,88,87,-1,89,90,91,-1,88,90,89,-1,91,92,93,-1,90,92,91,-1,93,94,95,-1,92,94,93,-1,95,96,97,-1,94,96,95,-1,97,98,99,-1,99,98,100,-1,96,98,97,-1,98,101,100,-1,100,102,103,-1,101,102,100,-1,103,104,105,-1,102,104,103,-1,105,106,107,-1,104,106,105,-1,107,108,109,-1,106,108,107,-1,109,110,111,-1,111,110,112,-1,108,110,109,-1,110,113,112,-1,112,114,115,-1,113,114,112,-1,115,116,117,-1,114,116,115,-1,117,118,119,-1,119,118,120,-1,116,118,117,-1,118,121,120,-1,121,122,120,-1,120,122,123,-1,123,122,124,-1,122,125,124,-1,124,126,127,-1,125,126,124,-1,126,128,127,-1,127,128,129,-1,128,130,129,-1,129,130,131,-1,130,132,131,-1,131,132,133,-1,133,132,134,-1,132,135,134,-1,134,135,136,-1,135,137,136,-1,137,138,136,-1,136,138,139,-1,139,138,140,-1,138,141,140,-1,140,141,142,-1,141,143,142,-1,142,143,144,-1,143,145,144,-1,145,146,144,-1,144,146,147,-1,147,146,148,-1,146,149,148,-1,148,150,151,-1,149,150,148,-1,151,152,153,-1,150,152,151,-1]
coord Coordinate { point [-1.19334 0.688975 0,-1.22595 0.629124 0,-1.19334 0.688975 2.08661,-1.22595 0.629124 2.08661,-1.25556 0.567734 0,-1.25556 0.567734 2.08661,-1.28209 0.504954 0,-1.28209 0.504954 2.08661,-1.3055 0.440939 0,-1.3055 0.440939 2.08661,-1.3257 0.375846 2.08661,-1.3257 0.375846 0,-1.34267 0.309833 0,-1.34267 0.309833 2.08661,-1.35634 0.243061 2.08661,-1.35634 0.243061 0,-1.3667 0.175696 0,-1.3667 0.175696 2.08661,-1.37372 0.1079 0,-1.37372 0.1079 2.08661,-1.37737 0.0398401 0,-1.37737 0.0398401 2.08661,-1.37766 -0.0283171 2.08661,-1.37766 -0.0283171 0,-1.37457 -0.096405 0,-1.37457 -0.096405 2.08661,-1.36812 -0.164257 0,-1.36812 -0.164257 2.08661,-1.35833 -0.231707 0,-1.35833 -0.231707 2.08661,-1.34521 -0.29859 2.08661,-1.34521 -0.29859 0,-1.3288 -0.364743 0,-1.3288 -0.364743 2.08661,-1.30914 -0.430004 2.08661,-1.30914 -0.430004 0,-1.28627 -0.494212 2.08661,-1.28627 -0.494212 0,-1.26026 -0.557211 0,-1.26026 -0.557211 2.08661,-1.23117 -0.618847 2.08661,-1.23117 -0.618847 0,-1.19906 -0.678969 0,-1.19906 -0.678969 2.08661,-1.16402 -0.737429 0,-1.16402 -0.737429 2.08661,-1.12613 -0.794086 0,-1.12613 -0.794086 2.08661,-1.08549 -0.848799 0,-1.08549 -0.848799 2.08661,-1.04219 -0.901436 2.08661,-1.04219 -0.901436 0,-0.99634 -0.951868 0,-0.99634 -0.951868 2.08661,-0.948053 -0.999971 0,-0.948053 -0.999971 2.08661,-0.897447 -1.04563 2.08661,-0.897447 -1.04563 0,-0.844645 -1.08872 2.08661,-0.844645 -1.08872 0,-0.789776 -1.12916 2.08661,-0.789776 -1.12916 0,-0.732976 -1.16683 0,-0.732976 -1.16683 2.08661,-0.674381 -1.20165 0,-0.674381 -1.20165 2.08661,-0.614137 -1.23352 0,-0.614137 -1.23352 2.08661,-0.552391 -1.26238 0,-0.552391 -1.26238 2.08661,-0.489293 -1.28815 0,-0.489293 -1.28815 2.08661,-0.424997 -1.31077 0,-0.424997 -1.31077 2.08661,-0.359662 -1.33018 0,-0.359662 -1.33018 2.08661,-0.293447 -1.34634 0,-0.293447 -1.34634 2.08661,-0.226515 -1.3592 2.08661,-0.226515 -1.3592 0,-0.159027 -1.36874 0,-0.159027 -1.36874 2.08661,-0.0911513 -1.37493 0,-0.0911513 -1.37493 2.08661,-0.0230521 -1.37776 0,-0.0230521 -1.37776 2.08661,0.0451035 -1.37721 0,0.0451035 -1.37721 2.08661,0.113149 -1.3733 0,0.113149 -1.3733 2.08661,0.180917 -1.36602 0,0.180917 -1.36602 2.08661,0.248243 -1.3554 0,0.248243 -1.3554 2.08661,0.314961 -1.34147 0,0.314961 -1.34147 2.08661,0.380909 -1.32426 0,0.380909 -1.32426 2.08661,0.445925 -1.3038 0,0.445925 -1.3038 2.08661,0.50985 -1.28016 2.08661,0.50985 -1.28016 0,0.572528 -1.25338 0,0.572528 -1.25338 2.08661,0.633804 -1.22354 0,0.633804 -1.22354 2.08661,0.69353 -1.1907 0,0.69353 -1.1907 2.08661,0.75156 -1.15495 0,0.75156 -1.15495 2.08661,0.80775 -1.11637 0,0.80775 -1.11637 2.08661,0.861964 -1.07506 2.08661,0.861964 -1.07506 0,0.91407 -1.03113 0,0.91407 -1.03113 2.08661,0.963939 -0.984666 0,0.963939 -0.984666 2.08661,1.01145 -0.935797 0,1.01145 -0.935797 2.08661,1.05649 -0.884638 2.08661,1.05649 -0.884638 0,1.09894 -0.831315 0,1.09894 -0.831315 2.08661,1.1387 -0.775958 2.08661,1.1387 -0.775958 0,1.17568 -0.718702 0,1.17568 -0.718702 2.08661,1.20978 -0.659688 0,1.20978 -0.659688 2.08661,1.24092 -0.59906 0,1.24092 -0.59906 2.08661,1.26902 -0.536966 0,1.26902 -0.536966 2.08661,1.29402 -0.473559 2.08661,1.29402 -0.473559 0,1.31585 -0.408992 2.08661,1.31585 -0.408992 0,1.33447 -0.343426 0,1.33447 -0.343426 2.08661,1.34982 -0.277019 2.08661,1.34982 -0.277019 0,1.36186 -0.209934 2.08661,1.36186 -0.209934 0,1.37058 -0.142336 2.08661,1.37058 -0.142336 0,1.37594 -0.0743892 0,1.37594 -0.0743892 2.08661,1.37794 -0.00626065 2.08661,1.37794 -0.00626065 0,1.37656 0.0618832 0,1.37656 0.0618832 2.08661,1.37182 0.129876 0,1.37182 0.129876 2.08661]
}}
appearance Appearance{material USE IC-BODY-EPOXY-04 }}
Shape { geometry IndexedFaceSet 
{ creaseAngle 1.00 coordIndex [0,1,2,-1,2,1,3,-1,3,1,4,-1,1,5,4,-1,4,6,7,-1,7,6,8,-1,5,6,4,-1,6,9,8,-1,8,10,11,-1,9,10,8,-1,11,12,13,-1,10,12,11,-1,13,14,15,-1,15,14,16,-1,12,14,13,-1,14,17,16,-1,16,18,19,-1,17,18,16,-1,19,20,21,-1,18,20,19,-1,21,22,23,-1,20,22,21,-1,22,24,23,-1,23,24,25,-1,24,26,25,-1,25,26,27,-1,26,28,27,-1,27,28,29,-1,28,30,29,-1,29,30,31,-1,30,32,31,-1,31,32,33,-1,32,34,33,-1,33,34,35,-1,34,36,35,-1,35,36,37,-1,36,38,37,-1,37,38,39,-1,38,40,39,-1,39,40,41,-1,40,42,41,-1,41,42,43,-1,42,44,43,-1,43,44,45,-1,45,46,47,-1,44,46,45,-1,46,48,47,-1,47,48,49,-1,49,50,51,-1,48,50,49,-1]
coord Coordinate { point [1.37182 0.129876 0,1.40579 0.133177 0,1.37182 0.129876 2.08661,1.40579 0.133177 2.08661,1.43894 0.141341 2.08661,1.43894 0.141341 0,1.47057 0.154198 0,1.47057 0.154198 2.08661,1.50001 0.171479 2.08661,1.50001 0.171479 0,1.52665 0.192824 0,1.52665 0.192824 2.08661,1.54994 0.217786 0,1.54994 0.217786 2.08661,1.56939 0.245844 0,1.56939 0.245844 2.08661,1.58458 0.276412 2.08661,1.58458 0.276412 0,1.59522 0.308852 0,1.59522 0.308852 2.08661,1.60107 0.342486 0,1.60107 0.342486 2.08661,1.60201 0.376611 0,1.60201 0.376611 2.08661,1.59802 0.410516 0,1.59802 0.410516 2.08661,1.58918 0.443491 0,1.58918 0.443491 2.08661,1.57568 0.474848 0,1.57568 0.474848 2.08661,1.55781 0.503932 0,1.55781 0.503932 2.08661,1.53593 0.530136 0,1.53593 0.530136 2.08661,1.5105 0.552913 0,1.5105 0.552913 2.08661,1.48205 0.571786 0,1.48205 0.571786 2.08661,1.45118 0.586361 0,1.45118 0.586361 2.08661,1.41853 0.596335 0,1.41853 0.596335 2.08661,1.38478 0.601498 0,1.38478 0.601498 2.08661,1.35065 0.601744 0,1.35065 0.601744 2.08661,1.31683 0.597066 0,1.31683 0.597066 2.08661,1.28404 0.587563 0,1.28404 0.587563 2.08661,1.25297 0.573432 0,1.25297 0.573432 2.08661]
}}
appearance Appearance{material USE IC-BODY-EPOXY-04 }}
Shape { geometry IndexedFaceSet 
{ creaseAngle 1.00 coordIndex [0,1,2,-1,3,4,5,-1,6,2,7,-1,6,0,2,-1,8,9,4,-1,8,4,3,-1,10,6,7,-1,11,12,9,-1,11,9,8,-1,13,7,14,-1,13,14,15,-1,13,10,7,-1,16,17,12,-1,16,12,11,-1,18,13,15,-1,18,15,19,-1,20,21,22,-1,20,22,17,-1,20,17,16,-1,23,19,24,-1,23,18,19,-1,25,21,20,-1,26,21,25,-1,27,26,25,-1,28,23,24,-1,28,29,23,-1,28,30,29,-1,28,31,30,-1,32,24,33,-1,32,33,34,-1,32,34,35,-1,32,35,36,-1,32,36,37,-1,32,37,38,-1,32,38,39,-1,32,39,40,-1,32,40,41,-1,32,41,42,-1,32,28,24,-1,43,44,31,-1,43,45,44,-1,43,46,45,-1,43,31,28,-1,47,48,49,-1,47,49,50,-1,47,50,51,-1,47,51,52,-1,47,52,53,-1,47,53,27,-1,47,46,43,-1,47,25,46,-1,47,27,25,-1,54,42,55,-1,54,55,56,-1,54,56,57,-1,54,57,58,-1,54,58,59,-1,54,59,60,-1,54,60,61,-1,54,61,62,-1,54,32,42,-1,63,54,62,-1,64,54,63,-1,65,54,64,-1,65,66,54,-1,67,66,65,-1,68,69,66,-1,70,47,71,-1,72,73,69,-1,72,69,68,-1,74,75,76,-1,74,76,77,-1,74,77,78,-1,74,78,79,-1,74,79,80,-1,74,80,48,-1,74,47,70,-1,74,48,47,-1,74,81,82,-1,74,82,75,-1,83,68,66,-1,84,70,71,-1,85,73,72,-1,86,81,74,-1,86,87,88,-1,86,88,89,-1,86,89,90,-1,86,90,91,-1,86,91,92,-1,86,92,93,-1,86,93,81,-1,94,67,95,-1,94,95,96,-1,94,96,97,-1,94,97,98,-1,94,66,67,-1,94,83,66,-1,99,71,73,-1,99,84,71,-1,99,73,85,-1,100,87,86,-1,100,101,102,-1,100,102,103,-1,100,103,104,-1,100,104,87,-1,105,99,85,-1,106,94,98,-1,106,98,107,-1,108,99,105,-1,109,108,105,-1,110,101,100,-1,111,108,109,-1,112,106,107,-1,113,111,109,-1,114,111,113,-1,115,114,113,-1,116,100,117,-1,116,110,100,-1,118,106,112,-1,119,116,117,-1,120,106,118,-1,121,119,117,-1,122,106,120,-1,122,123,106,-1,124,121,117,-1,125,123,122,-1,126,124,117,-1,127,123,125,-1,128,126,117,-1,128,117,129,-1,130,123,127,-1,131,128,129,-1,132,123,130,-1,133,131,129,-1,134,123,132,-1,134,135,123,-1,136,133,129,-1,137,135,134,-1,138,136,129,-1,138,129,139,-1,140,135,137,-1,141,138,139,-1,142,135,140,-1,143,141,139,-1,144,145,135,-1,144,135,142,-1,146,143,139,-1,147,145,144,-1,148,146,139,-1,149,145,147,-1,150,139,151,-1,150,148,139,-1,152,145,149,-1,153,150,151,-1,154,145,152,-1,155,153,151,-1,156,157,145,-1,156,145,154,-1,158,155,151,-1,159,157,156,-1,160,158,151,-1,161,157,159,-1,162,160,151,-1,162,151,163,-1,164,157,161,-1,165,162,163,-1,166,157,164,-1,167,165,163,-1,168,157,166,-1,168,115,157,-1,169,167,163,-1,170,115,168,-1,171,169,163,-1,172,115,170,-1,173,171,163,-1,173,163,114,-1,174,115,172,-1,175,114,115,-1,175,173,114,-1,175,115,174,-1]
coord Coordinate { point [1.22569 0.556044 2.08661,1.25297 0.573432 2.08661,1.2229 0.635026 2.08661,1.33851 0.131412 2.08661,1.37656 0.0618832 2.08661,1.37182 0.129876 2.08661,1.20105 0.535093 2.08661,1.18981 0.695049 2.08661,1.30575 0.137623 2.08661,1.37794 -0.00626065 2.08661,1.1795 0.510973 2.08661,1.2742 0.148383 2.08661,1.37594 -0.0743892 2.08661,1.16145 0.484135 2.08661,1.15378 0.753352 2.08661,1.11489 0.809792 2.08661,1.24447 0.16348 2.08661,1.37058 -0.142336 2.08661,1.14686 0.454156 2.08661,1.07325 0.864227 2.08661,1.21716 0.182611 2.08661,1.34982 -0.277019 2.08661,1.36186 -0.209934 2.08661,1.13663 0.422422 2.08661,1.02895 0.916525 2.08661,1.19282 0.205397 2.08661,1.33447 -0.343426 2.08661,1.31585 -0.408992 2.08661,0.262968 0.345148 2.08661,1.13098 0.389564 2.08661,1.13001 0.356237 2.08661,1.13373 0.323105 2.08661,0.231765 0.402725 2.08661,0.982098 0.966555 2.08661,0.932822 1.01419 2.08661,0.881237 1.05932 2.08661,0.827473 1.10183 2.08661,0.771661 1.14162 2.08661,0.71394 1.17857 2.08661,0.654452 1.21262 2.08661,0.593346 1.24366 2.08661,0.530771 1.27162 2.08661,0.466884 1.29644 2.08661,0.255416 0.305787 2.08661,1.14209 0.290828 2.08661,1.15491 0.260049 2.08661,1.17193 0.231382 2.08661,0.222595 0.270952 2.08661,1.1387 -0.775958 2.08661,1.17568 -0.718702 2.08661,1.20978 -0.659688 2.08661,1.24092 -0.59906 2.08661,1.26902 -0.536966 2.08661,1.29402 -0.473559 2.08661,0.167804 0.416785 2.08661,0.401841 1.31806 2.08661,0.335804 1.33641 2.08661,0.268936 1.35145 2.08661,0.201403 1.36315 2.08661,0.133372 1.37148 2.08661,0.0650103 1.37642 2.08661,-0.00351198 1.37795 2.08661,-0.0720255 1.37607 2.08661,-0.140361 1.37078 2.08661,-0.208349 1.36211 2.08661,-0.275822 1.35006 2.08661,0.115328 0.377603 2.08661,-0.342612 1.33468 2.08661,-0.359715 0.278766 2.08661,0.107197 0.324356 2.08661,-0.176703 -0.404245 2.08661,0.168706 0.26265 2.08661,-0.354492 0.244115 2.08661,0.122345 0.291348 2.08661,-0.17148 -0.438896 2.08661,0.861964 -1.07506 2.08661,0.91407 -1.03113 2.08661,0.963939 -0.984666 2.08661,1.01145 -0.935797 2.08661,1.05649 -0.884638 2.08661,1.09894 -0.831315 2.08661,0.75156 -1.15495 2.08661,0.80775 -1.11637 2.08661,-0.379455 0.30772 2.08661,-0.196443 -0.375291 2.08661,-0.364821 0.21063 2.08661,-0.181809 -0.472382 2.08661,0.314961 -1.34147 2.08661,0.380909 -1.32426 2.08661,0.445925 -1.3038 2.08661,0.50985 -1.28016 2.08661,0.572528 -1.25338 2.08661,0.633804 -1.22354 2.08661,0.69353 -1.1907 2.08661,-0.409803 0.325241 2.08661,-0.408554 1.31599 2.08661,-0.473486 1.29405 2.08661,-0.537246 1.2689 2.08661,-0.599678 1.24062 2.08661,-0.22679 -0.35777 2.08661,-0.205644 -0.49807 2.08661,0.0451035 -1.37721 2.08661,0.113149 -1.3733 2.08661,0.180917 -1.36602 2.08661,0.248243 -1.3554 2.08661,-0.388656 0.184941 2.08661,-0.444747 0.32786 2.08661,-0.660625 1.20926 2.08661,-0.261735 -0.355151 2.08661,-0.421276 0.172139 2.08661,-0.0230521 -1.37776 2.08661,-0.294355 -0.367954 2.08661,-0.719938 1.17492 2.08661,-0.456221 0.174758 2.08661,-0.31819 -0.393642 2.08661,-0.486569 0.192279 2.08661,-0.0911513 -1.37493 2.08661,-0.238264 -0.510872 2.08661,-0.77747 1.13767 2.08661,-0.159027 -1.36874 2.08661,-0.833078 1.0976 2.08661,-0.226515 -1.3592 2.08661,-0.886626 1.05482 2.08661,-0.477368 0.315058 2.08661,-0.293447 -1.34634 2.08661,-0.937979 1.00943 2.08661,-0.359662 -1.33018 2.08661,-0.987012 0.961537 2.08661,-0.424997 -1.31077 2.08661,-0.273209 -0.508254 2.08661,-1.0336 0.911268 2.08661,-0.489293 -1.28815 2.08661,-1.07764 0.858745 2.08661,-0.552391 -1.26238 2.08661,-1.11901 0.804098 2.08661,-0.501203 0.28937 2.08661,-0.614137 -1.23352 2.08661,-1.1576 0.747461 2.08661,-0.674381 -1.20165 2.08661,-0.303556 -0.490732 2.08661,-1.19334 0.688975 2.08661,-0.732976 -1.16683 2.08661,-1.22595 0.629124 2.08661,-0.789776 -1.12916 2.08661,-1.25556 0.567734 2.08661,-0.511532 0.255884 2.08661,-0.844645 -1.08872 2.08661,-1.28209 0.504954 2.08661,-0.897447 -1.04563 2.08661,-1.3055 0.440939 2.08661,-0.948053 -0.999971 2.08661,-0.323296 -0.461779 2.08661,-1.3257 0.375846 2.08661,-0.99634 -0.951868 2.08661,-1.34267 0.309833 2.08661,-1.04219 -0.901436 2.08661,-1.35634 0.243061 2.08661,-0.506309 0.221233 2.08661,-1.08549 -0.848799 2.08661,-1.3667 0.175696 2.08661,-1.12613 -0.794086 2.08661,-1.37372 0.1079 2.08661,-1.16402 -0.737429 2.08661,-0.328519 -0.427128 2.08661,-1.37737 0.0398401 2.08661,-1.19906 -0.678969 2.08661,-1.37766 -0.0283171 2.08661,-1.23117 -0.618847 2.08661,-1.37457 -0.096405 2.08661,-1.26026 -0.557211 2.08661,-1.36812 -0.164257 2.08661,-1.28627 -0.494212 2.08661,-1.35833 -0.231707 2.08661,-1.30914 -0.430004 2.08661,-1.34521 -0.29859 2.08661,-1.3288 -0.364743 2.08661]
}}
appearance Appearance{material USE IC-BODY-EPOXY-04 }}
Shape { geometry IndexedFaceSet 
{ creaseAngle 1.00 coordIndex [0,1,2,-1,0,2,3,-1,0,3,4,-1,0,4,5,-1,0,5,6,-1,7,8,9,-1,7,9,10,-1,7,10,11,-1,7,11,1,-1,7,1,0,-1,12,6,13,-1,12,13,14,-1,12,14,15,-1,12,15,16,-1,12,0,6,-1,17,18,19,-1,17,19,20,-1,17,20,21,-1,17,21,8,-1,17,8,7,-1,22,16,23,-1,22,23,24,-1,22,24,25,-1,22,12,16,-1,26,27,28,-1,26,28,29,-1,26,29,18,-1,26,18,17,-1,30,22,25,-1,31,27,26,-1]
coord Coordinate { point [1.32209 0.388366 2.08661,1.59802 0.410516 2.08661,1.58918 0.443491 2.08661,1.57568 0.474848 2.08661,1.55781 0.503932 2.08661,1.53593 0.530136 2.08661,1.5105 0.552913 2.08661,1.33915 0.32471 2.08661,1.58458 0.276412 2.08661,1.59522 0.308852 2.08661,1.60107 0.342486 2.08661,1.60201 0.376611 2.08661,1.30201 0.451134 2.08661,1.48205 0.571786 2.08661,1.45118 0.586361 2.08661,1.41853 0.596335 2.08661,1.38478 0.601498 2.08661,1.35314 0.260311 2.08661,1.50001 0.171479 2.08661,1.52665 0.192824 2.08661,1.54994 0.217786 2.08661,1.56939 0.245844 2.08661,1.27895 0.512869 2.08661,1.35065 0.601744 2.08661,1.31683 0.597066 2.08661,1.28404 0.587563 2.08661,1.36404 0.195317 2.08661,1.40579 0.133177 2.08661,1.43894 0.141341 2.08661,1.47057 0.154198 2.08661,1.25297 0.573432 2.08661,1.37182 0.129876 2.08661]
}}
appearance Appearance{material USE IC-BODY-EPOXY-04 }}
Shape { geometry IndexedFaceSet 
{ creaseAngle 1.00 coordIndex [0,1,2,-1,3,4,5,-1,6,1,0,-1,7,3,5,-1,8,9,1,-1,8,1,6,-1,10,5,11,-1,10,7,5,-1,12,9,8,-1,13,10,11,-1,14,9,12,-1,15,13,11,-1,16,17,9,-1,16,9,14,-1,18,11,19,-1,18,15,11,-1,20,17,16,-1,21,18,19,-1,22,17,20,-1,23,21,19,-1,24,17,22,-1,25,19,17,-1,25,17,24,-1,25,23,19,-1]
coord Coordinate { point [1.22569 0.556044 2.08661,1.27895 0.512869 2.08661,1.25297 0.573432 2.08661,1.33851 0.131412 2.08661,1.37182 0.129876 2.08661,1.36404 0.195317 2.08661,1.20105 0.535093 2.08661,1.30575 0.137623 2.08661,1.1795 0.510973 2.08661,1.30201 0.451134 2.08661,1.2742 0.148383 2.08661,1.35314 0.260311 2.08661,1.16145 0.484135 2.08661,1.24447 0.16348 2.08661,1.14686 0.454156 2.08661,1.21716 0.182611 2.08661,1.13663 0.422422 2.08661,1.32209 0.388366 2.08661,1.19282 0.205397 2.08661,1.33915 0.32471 2.08661,1.13098 0.389564 2.08661,1.17193 0.231382 2.08661,1.13001 0.356237 2.08661,1.15491 0.260049 2.08661,1.13373 0.323105 2.08661,1.14209 0.290828 2.08661]
}}
appearance Appearance{material USE IC-BODY-EPOXY-04 }}
Shape { geometry IndexedFaceSet 
{ creaseAngle 1.00 coordIndex [0,1,2,-1,2,1,3,-1,1,4,3,-1,3,5,6,-1,4,5,3,-1,5,7,6,-1,6,8,9,-1,7,8,6,-1,9,10,11,-1,8,10,9,-1,10,12,11,-1,11,13,14,-1,12,13,11,-1,14,15,16,-1,13,15,14,-1,15,17,16,-1,16,18,19,-1,17,18,16,-1,19,20,21,-1,18,20,19,-1,21,22,2,-1,20,22,21,-1,22,0,2,-1]
coord Coordinate { point [0.108576 0.36559 0.795351,0.131812 0.391818 0.794986,0.115328 0.377603 2.08661,0.167804 0.416785 2.08661,0.164128 0.405367 0.794691,0.199123 0.403553 0.794524,0.231765 0.402725 2.08661,0.229867 0.386735 0.79452,0.250268 0.358244 0.794679,0.262968 0.345148 2.08661,0.256288 0.323724 0.794968,0.255416 0.305787 2.08661,0.246734 0.290011 0.795332,0.223498 0.263782 0.795697,0.222595 0.270952 2.08661,0.191181 0.250234 0.795992,0.168706 0.26265 2.08661,0.156186 0.252048 0.796158,0.125443 0.268866 0.796163,0.122345 0.291348 2.08661,0.105041 0.297357 0.796004,0.107197 0.324356 2.08661,0.0990213 0.331877 0.795715]
}}
appearance Appearance{material USE IC-BODY-EPOXY-04 }}
Shape { geometry IndexedFaceSet 
{ creaseAngle 1.00 coordIndex [0,1,2,-1,0,2,3,-1,4,3,5,-1,4,0,3,-1,6,5,7,-1,6,4,5,-1,8,7,9,-1,8,6,7,-1,10,9,11,-1,10,8,9,-1,12,13,14,-1,12,11,13,-1,12,10,11,-1,15,12,14,-1,16,14,17,-1,16,15,14,-1,18,17,19,-1,18,16,17,-1,20,19,21,-1,20,18,19,-1,22,21,23,-1,22,20,21,-1,24,25,26,-1,24,23,25,-1,24,22,23,-1,27,24,26,-1,1,26,2,-1,1,27,26,-1]
coord Coordinate { point [-0.511532 0.255884 0.803148,-0.501203 0.28937 0.803148,-0.501203 0.28937 2.08661,-0.511532 0.255884 2.08661,-0.506309 0.221233 0.803148,-0.506309 0.221233 2.08661,-0.486569 0.192279 0.803148,-0.486569 0.192279 2.08661,-0.456221 0.174758 0.803148,-0.456221 0.174758 2.08661,-0.421276 0.172139 0.803148,-0.421276 0.172139 2.08661,-0.388656 0.184941 0.803148,-0.388656 0.184941 2.08661,-0.364821 0.21063 2.08661,-0.364821 0.21063 0.803148,-0.354492 0.244115 0.803148,-0.354492 0.244115 2.08661,-0.359715 0.278766 0.803148,-0.359715 0.278766 2.08661,-0.379455 0.30772 0.803148,-0.379455 0.30772 2.08661,-0.409803 0.325241 0.803148,-0.409803 0.325241 2.08661,-0.444747 0.32786 0.803148,-0.444747 0.32786 2.08661,-0.477368 0.315058 2.08661,-0.477368 0.315058 0.803148]
}}
appearance Appearance{material USE IC-BODY-EPOXY-04 }}
Shape { geometry IndexedFaceSet 
{ creaseAngle 1.00 coordIndex [0,1,2,-1,0,3,4,-1,0,2,3,-1,5,0,4,-1,6,4,7,-1,6,5,4,-1,8,7,9,-1,8,6,7,-1,10,9,11,-1,10,8,9,-1,12,11,13,-1,12,10,11,-1,14,13,15,-1,14,12,13,-1,16,15,17,-1,16,14,15,-1,18,17,19,-1,18,16,17,-1,20,19,21,-1,20,18,19,-1,22,21,23,-1,22,20,21,-1,24,23,25,-1,24,22,23,-1,26,25,27,-1,26,24,25,-1,1,27,2,-1,1,26,27,-1]
coord Coordinate { point [-0.328519 -0.427128 0.799998,-0.31819 -0.393642 0.799998,-0.31819 -0.393642 2.08661,-0.328519 -0.427128 2.08661,-0.323296 -0.461779 2.08661,-0.323296 -0.461779 0.799998,-0.303556 -0.490732 0.799998,-0.303556 -0.490732 2.08661,-0.273209 -0.508254 0.799998,-0.273209 -0.508254 2.08661,-0.238264 -0.510872 0.799998,-0.238264 -0.510872 2.08661,-0.205644 -0.49807 0.799998,-0.205644 -0.49807 2.08661,-0.181809 -0.472382 0.799998,-0.181809 -0.472382 2.08661,-0.17148 -0.438896 0.799998,-0.17148 -0.438896 2.08661,-0.176703 -0.404245 0.799998,-0.176703 -0.404245 2.08661,-0.196443 -0.375291 0.799998,-0.196443 -0.375291 2.08661,-0.22679 -0.35777 0.799998,-0.22679 -0.35777 2.08661,-0.261735 -0.355151 0.799998,-0.261735 -0.355151 2.08661,-0.294355 -0.367954 0.799998,-0.294355 -0.367954 2.08661]
}}
appearance Appearance{material USE IC-BODY-EPOXY-04 }}
Shape { geometry IndexedFaceSet 
{ creaseAngle 1.00 coordIndex [0,1,2,-1,3,1,4,-1,4,1,5,-1,5,1,6,-1,6,1,7,-1,7,1,8,-1,8,1,9,-1,9,1,10,-1,10,1,11,-1,11,1,12,-1,12,1,13,-1,13,1,0,-1]
coord Coordinate { point [0.108576 0.36559 0.795351,0.164128 0.405367 0.794691,0.131812 0.391818 0.794986,0.199123 0.403553 0.794524,0.229867 0.386735 0.79452,0.250268 0.358244 0.794679,0.256288 0.323724 0.794968,0.246734 0.290011 0.795332,0.223498 0.263782 0.795697,0.191181 0.250234 0.795992,0.156186 0.252048 0.796158,0.125443 0.268866 0.796163,0.105041 0.297357 0.796004,0.0990213 0.331877 0.795715]
}}
appearance Appearance{material USE IC-BODY-EPOXY-04 }}
Shape { geometry IndexedFaceSet 
{ creaseAngle 1.00 coordIndex [0,1,2,-1,0,3,4,-1,0,4,5,-1,0,5,6,-1,0,6,7,-1,0,7,8,-1,0,8,9,-1,0,9,10,-1,0,10,11,-1,0,11,12,-1,0,12,13,-1,0,13,1,-1]
coord Coordinate { point [-0.506309 0.221233 0.803148,-0.501203 0.28937 0.803148,-0.511532 0.255884 0.803148,-0.486569 0.192279 0.803148,-0.456221 0.174758 0.803148,-0.421276 0.172139 0.803148,-0.388656 0.184941 0.803148,-0.364821 0.21063 0.803148,-0.354492 0.244115 0.803148,-0.359715 0.278766 0.803148,-0.379455 0.30772 0.803148,-0.409803 0.325241 0.803148,-0.444747 0.32786 0.803148,-0.477368 0.315058 0.803148]
}}
appearance Appearance{material USE IC-BODY-EPOXY-04 }}
Shape { geometry IndexedFaceSet 
{ creaseAngle 1.00 coordIndex [0,1,2,-1,0,3,4,-1,0,4,5,-1,0,5,6,-1,0,6,7,-1,0,7,8,-1,0,8,9,-1,0,9,10,-1,0,10,11,-1,0,11,12,-1,0,12,13,-1,0,13,1,-1]
coord Coordinate { point [-0.323296 -0.461779 0.799998,-0.31819 -0.393642 0.799998,-0.328519 -0.427128 0.799998,-0.303556 -0.490732 0.799998,-0.273209 -0.508254 0.799998,-0.238264 -0.510872 0.799998,-0.205644 -0.49807 0.799998,-0.181809 -0.472382 0.799998,-0.17148 -0.438896 0.799998,-0.176703 -0.404245 0.799998,-0.196443 -0.375291 0.799998,-0.22679 -0.35777 0.799998,-0.261735 -0.355151 0.799998,-0.294355 -0.367954 0.799998]
}}
appearance Appearance{material USE IC-BODY-EPOXY-04 }}
