M48
; DRILL file {KiCad 9.0.4} date 2026-08-05T13:43:46+0100
; FORMAT={-:-/ absolute / metric / decimal}
; #@! TF.CreationDate,2026-08-05T13:43:46+01:00
; #@! TF.GenerationSoftware,Kicad,Pcbnew,9.0.4
; #@! TF.FileFunction,MixedPlating,1,2
FMAT,2
METRIC
; #@! TA.AperFunction,Plated,PTH,ComponentDrill
T1C0.800
; #@! TA.AperFunction,Plated,PTH,ComponentDrill
T2C0.900
; #@! TA.AperFunction,Plated,PTH,ComponentDrill
T3C0.950
; #@! TA.AperFunction,Plated,PTH,ViaDrill
T4C1.000
; #@! TA.AperFunction,Plated,PTH,ComponentDrill
T5C1.000
; #@! TA.AperFunction,Plated,PTH,ComponentDrill
T6C1.100
; #@! TA.AperFunction,Plated,PTH,ComponentDrill
T7C1.850
; #@! TA.AperFunction,Plated,PTH,ComponentDrill
T8C5.200
; #@! TA.AperFunction,NonPlated,NPTH,ComponentDrill
T9C2.200
%
G90
G05
T1
X127.2Y-119.5
X142.2Y-119.5
X159.995Y-109.82
X159.995Y-112.36
X159.995Y-114.9
X159.995Y-117.44
X159.995Y-119.98
X170.685Y-109.82
T2
X179.36Y-116.6
X181.9Y-116.6
T3
X113.733Y-76.8
X113.733Y-79.3
X113.733Y-81.8
X113.733Y-84.3
X113.733Y-86.8
T4
X112.7Y-94.8
X118.3Y-66.825
X131.75Y-71.95
X144.8Y-116.8
T5
X107.95Y-61.3
X110.425Y-109.0
X110.425Y-116.62
X112.95Y-61.3
X114.975Y-109.065
X114.975Y-116.685
X120.61Y-61.825
X120.61Y-101.325
X121.49Y-83.7
X123.15Y-61.825
X123.15Y-101.325
X125.69Y-61.825
X125.69Y-101.325
X128.23Y-61.825
X128.23Y-101.325
X129.11Y-83.7
X130.77Y-61.825
X130.77Y-101.325
X131.305Y-113.205
X133.31Y-61.825
X133.31Y-101.325
X133.845Y-113.205
X135.85Y-61.825
X135.85Y-101.325
X136.385Y-113.205
X138.39Y-61.825
X138.39Y-101.325
X138.415Y-125.45
X140.93Y-61.825
X140.93Y-101.325
X143.47Y-61.825
X143.47Y-101.325
X144.92Y-112.9
X146.01Y-61.825
X146.01Y-101.325
X146.035Y-125.45
X147.46Y-112.9
X148.55Y-61.825
X148.55Y-101.325
X150.0Y-112.9
X150.275Y-125.375
X151.09Y-61.825
X151.09Y-101.325
X155.275Y-125.375
X155.675Y-96.525
X155.675Y-101.525
X159.9Y-93.965
X159.9Y-101.585
X165.95Y-116.815
X165.95Y-124.435
T6
X105.275Y-110.47
X105.275Y-113.01
X105.275Y-115.55
T7
X102.6Y-126.75
X107.9Y-126.675
X113.45Y-122.05
X118.775Y-126.8
X124.475Y-126.6
T8
X175.5Y-90.8
X175.6Y-69.5
T9
X123.4Y-79.5
X123.4Y-108.5
X146.0Y-94.75
M30
