%TF.GenerationSoftware,KiCad,Pcbnew,9.0.4*%
%TF.CreationDate,2026-08-05T13:44:46+01:00*%
%TF.ProjectId,MYOSA_breakout,4d594f53-415f-4627-9265-616b6f75742e,rev?*%
%TF.SameCoordinates,Original*%
%TF.FileFunction,Plated,1,2,PTH,Drill*%
%TF.FilePolarity,Positive*%
%FSLAX46Y46*%
G04 Gerber Fmt 4.6, Leading zero omitted, Abs format (unit mm)*
G04 Created by KiCad (PCBNEW 9.0.4) date 2026-08-05 13:44:46*
%MOMM*%
%LPD*%
G01*
G04 APERTURE LIST*
%TA.AperFunction,ComponentDrill*%
%ADD10C,0.800000*%
%TD*%
%TA.AperFunction,ComponentDrill*%
%ADD11C,0.900000*%
%TD*%
%TA.AperFunction,ComponentDrill*%
%ADD12C,0.950000*%
%TD*%
%TA.AperFunction,ViaDrill*%
%ADD13C,1.000000*%
%TD*%
%TA.AperFunction,ComponentDrill*%
%ADD14C,1.000000*%
%TD*%
%TA.AperFunction,ComponentDrill*%
%ADD15C,1.100000*%
%TD*%
%TA.AperFunction,ComponentDrill*%
%ADD16C,1.850000*%
%TD*%
%TA.AperFunction,ComponentDrill*%
%ADD17C,5.200000*%
%TD*%
G04 APERTURE END LIST*
D10*
%TO.C,BT1*%
X127200000Y-119500000D03*
X142200000Y-119500000D03*
%TO.C,U2*%
X159995000Y-109820000D03*
X159995000Y-112360000D03*
X159995000Y-114900000D03*
X159995000Y-117440000D03*
X159995000Y-119980000D03*
X170685000Y-109820000D03*
D11*
%TO.C,5V_Reg_LED1*%
X179360000Y-116600000D03*
X181900000Y-116600000D03*
D12*
%TO.C,CON_LED_Photodiode1*%
X113732500Y-76800000D03*
X113732500Y-79300000D03*
X113732500Y-81800000D03*
X113732500Y-84300000D03*
X113732500Y-86800000D03*
%TD*%
D13*
X112700000Y-94800000D03*
X118300000Y-66825000D03*
X131750000Y-71950000D03*
X144800000Y-116800000D03*
D14*
%TO.C,C_3V3_out1*%
X107950000Y-61300000D03*
%TO.C,R_FET_Gate1*%
X110425000Y-109000000D03*
X110425000Y-116620000D03*
%TO.C,C_3V3_out1*%
X112950000Y-61300000D03*
%TO.C,R_FET_pulldown1*%
X114975000Y-109065000D03*
X114975000Y-116685000D03*
%TO.C,U1*%
X120610000Y-61825000D03*
X120610000Y-101325000D03*
%TO.C,R_series_MWIR_LED1*%
X121490000Y-83700000D03*
%TO.C,U1*%
X123150000Y-61825000D03*
X123150000Y-101325000D03*
X125690000Y-61825000D03*
X125690000Y-101325000D03*
X128230000Y-61825000D03*
X128230000Y-101325000D03*
%TO.C,R_series_MWIR_LED1*%
X129110000Y-83700000D03*
%TO.C,U1*%
X130770000Y-61825000D03*
X130770000Y-101325000D03*
%TO.C,SW_USB1*%
X131304780Y-113205494D03*
%TO.C,U1*%
X133310000Y-61825000D03*
X133310000Y-101325000D03*
%TO.C,SW_USB1*%
X133844780Y-113205494D03*
%TO.C,U1*%
X135850000Y-61825000D03*
X135850000Y-101325000D03*
%TO.C,SW_USB1*%
X136384780Y-113205494D03*
%TO.C,U1*%
X138390000Y-61825000D03*
X138390000Y-101325000D03*
%TO.C,R_Vin1*%
X138415000Y-125450000D03*
%TO.C,U1*%
X140930000Y-61825000D03*
X140930000Y-101325000D03*
X143470000Y-61825000D03*
X143470000Y-101325000D03*
%TO.C,SW_BAT/PSU1*%
X144920000Y-112900000D03*
%TO.C,U1*%
X146010000Y-61825000D03*
X146010000Y-101325000D03*
%TO.C,R_Vin1*%
X146035000Y-125450000D03*
%TO.C,SW_BAT/PSU1*%
X147460000Y-112900000D03*
%TO.C,U1*%
X148550000Y-61825000D03*
X148550000Y-101325000D03*
%TO.C,SW_BAT/PSU1*%
X150000000Y-112900000D03*
%TO.C,C_Vin1*%
X150275000Y-125375000D03*
%TO.C,U1*%
X151090000Y-61825000D03*
X151090000Y-101325000D03*
%TO.C,C_Vin1*%
X155275000Y-125375000D03*
%TO.C,C_ADC_cap1*%
X155675000Y-96525000D03*
X155675000Y-101525000D03*
%TO.C,R_ADC_pulldown1*%
X159900000Y-93965000D03*
X159900000Y-101585000D03*
%TO.C,R_reg_LED1*%
X165950000Y-116815000D03*
X165950000Y-124435000D03*
D15*
%TO.C,Q1*%
X105275000Y-110470000D03*
X105275000Y-113010000D03*
X105275000Y-115550000D03*
D16*
%TO.C,TP2*%
X102600000Y-126750000D03*
%TO.C,TP1*%
X107900000Y-126675000D03*
%TO.C,TP5*%
X113450000Y-122050000D03*
%TO.C,TP3*%
X118775000Y-126800000D03*
%TO.C,TP6*%
X124475000Y-126600000D03*
D17*
%TO.C,J3*%
X175500000Y-90800000D03*
%TO.C,J4*%
X175600000Y-69500000D03*
M02*
