M48
; DRILL file KiCad 10.0.1 date 2026-05-18T11:52:05
; FORMAT={-:-/ absolute / metric / decimal}
; #@! TF.CreationDate,2026-05-18T11:52:05+01:00
; #@! TF.GenerationSoftware,Kicad,Pcbnew,10.0.1
; #@! TF.FileFunction,Plated,1,2,PTH
FMAT,2
METRIC
; #@! TA.AperFunction,Plated,PTH,ComponentDrill
T1C0.800
; #@! TA.AperFunction,Plated,PTH,ComponentDrill
T2C0.950
; #@! TA.AperFunction,Plated,PTH,ViaDrill
T3C1.000
; #@! TA.AperFunction,Plated,PTH,ComponentDrill
T4C1.000
%
G90
G05
T1
X126.92Y-65.0
X127.25Y-62.0
X129.75Y-62.0
X136.0Y-76.42
X136.0Y-86.58
X137.08Y-65.0
X139.5Y-76.42
X139.5Y-86.58
X141.25Y-66.0
X142.5Y-76.75
X142.5Y-79.25
X143.75Y-66.0
X145.92Y-69.0
X146.0Y-72.0
X146.0Y-82.16
X155.0Y-78.25
X155.0Y-80.75
X156.08Y-69.0
T2
X132.032Y-79.0
X132.032Y-81.5
X132.032Y-84.0
X160.5Y-74.5
X160.5Y-77.0
X160.5Y-79.5
X160.5Y-82.0
X160.5Y-84.5
T3
X130.0Y-88.0
T4
X124.074Y-71.161
X126.624Y-68.611
X129.174Y-71.161
X150.5Y-74.0
X150.5Y-79.0
X150.5Y-85.0
X155.5Y-85.0
M30
